<?xml version="1.0" standalone="no"?>
<!DOCTYPE svg PUBLIC "-//W3C//DTD SVG 20010904//EN"
 "http://www.w3.org/TR/2001/REC-SVG-20010904/DTD/svg10.dtd">
<svg version="1.0" xmlns="http://www.w3.org/2000/svg"
 width="1280.000000pt" height="1280.000000pt" viewBox="0 0 1280.000000 1280.000000"
 preserveAspectRatio="xMidYMid meet">
<metadata>
Created by potrace 1.15, written by Peter Selinger 2001-2017
</metadata>
<g transform="translate(0.000000,1280.000000) scale(0.100000,-0.100000)"
fill="#ffffff" stroke="none">
<path d="M6532 12638 c-60 -191 -73 -265 -77 -423 -2 -117 -7 -155 -29 -230
-37 -124 -105 -292 -191 -470 l-71 -150 -112 -107 c-206 -196 -314 -272 -459
-321 -101 -35 -163 -80 -304 -224 -156 -160 -213 -196 -315 -201 -54 -3 -78
-9 -93 -23 -30 -28 -27 -57 7 -70 37 -14 205 16 376 68 28 8 18 -11 -79 -147
-47 -66 -85 -122 -85 -125 0 -10 55 8 111 36 36 18 106 74 189 151 72 68 135
124 140 126 4 2 -14 -75 -41 -170 -27 -95 -49 -176 -49 -180 -1 -28 129 21
166 63 12 13 42 64 68 114 51 96 148 255 156 255 3 0 27 -64 55 -141 27 -78
55 -144 63 -147 7 -2 84 5 170 16 85 12 158 20 160 17 3 -3 0 -29 -7 -58 -12
-53 -13 -55 -162 -178 -297 -244 -569 -443 -688 -503 -25 -13 -167 -65 -316
-116 -148 -51 -278 -100 -289 -109 -10 -9 -90 -98 -178 -199 -154 -176 -160
-185 -152 -214 23 -78 87 -64 200 44 46 44 84 78 84 74 0 -3 -16 -28 -35 -55
-50 -69 -105 -178 -105 -207 0 -66 139 8 242 130 57 67 66 73 154 107 52 21
94 35 94 32 0 -2 -34 -84 -75 -180 -42 -97 -74 -180 -73 -185 5 -15 126 50
174 94 25 23 70 79 100 124 29 44 73 99 99 123 48 44 60 45 97 4 17 -18 15
-25 -42 -152 -34 -74 -59 -135 -57 -137 2 -2 51 42 110 97 63 59 120 104 139
110 42 12 238 24 238 15 0 -5 -28 -45 -62 -89 -72 -97 -107 -167 -115 -236 -5
-43 -9 -51 -27 -51 -11 0 -43 -22 -71 -49 -47 -47 -60 -53 -215 -104 -287 -95
-541 -202 -648 -275 -57 -38 -57 -38 -97 -23 -27 10 -78 15 -160 16 -109 0
-125 -2 -177 -27 -31 -14 -64 -37 -73 -51 -15 -23 -15 -28 -1 -54 13 -27 32
-38 115 -70 22 -8 17 -14 -80 -83 -121 -87 -129 -94 -224 -221 -75 -101 -110
-163 -121 -216 -8 -42 26 -67 78 -56 28 7 56 32 142 131 59 67 108 122 109
122 1 0 0 -25 -1 -55 -7 -111 54 -84 210 93 62 71 114 126 116 122 1 -3 -15
-91 -36 -193 -21 -103 -36 -187 -32 -187 15 0 88 60 108 87 11 16 23 42 27 59
3 16 34 87 68 157 l62 128 5 -187 c4 -137 8 -188 18 -192 6 -2 12 1 12 6 0 6
28 88 62 183 l61 172 17 -70 c30 -128 74 -171 126 -122 32 30 46 79 42 148
l-3 59 79 61 c43 34 82 61 85 61 4 0 38 -63 76 -140 38 -77 72 -140 75 -140 3
0 22 42 43 93 46 112 97 182 157 213 79 40 94 40 124 1 38 -49 29 -75 -40
-111 -112 -59 -244 -244 -244 -342 l0 -40 -117 -38 c-279 -91 -645 -244 -872
-362 -286 -150 -394 -234 -575 -448 -243 -287 -346 -450 -322 -511 7 -19 58
-20 95 0 39 20 97 89 116 139 13 32 38 58 112 116 53 41 100 76 104 78 4 2 -7
-43 -26 -100 -19 -57 -50 -152 -69 -213 l-35 -110 46 50 c105 114 213 280 213
326 0 32 37 95 74 126 38 31 104 69 109 62 2 -2 -1 -104 -7 -227 -6 -122 -8
-221 -4 -220 16 6 130 157 153 203 13 28 36 95 51 150 14 55 31 109 38 119 7
11 38 27 72 36 32 9 83 27 112 39 l53 21 -6 -33 c-33 -173 -35 -179 -110 -247
-38 -35 -96 -80 -129 -101 -46 -31 -68 -55 -108 -119 -39 -64 -54 -80 -73 -80
-34 0 -161 -88 -231 -162 -68 -70 -98 -122 -109 -185 l-7 -43 -54 0 c-78 0
-158 -33 -211 -89 -60 -62 -123 -158 -123 -187 0 -27 32 -48 61 -41 10 3 19 2
19 -2 0 -4 -52 -81 -116 -171 -192 -273 -345 -542 -376 -663 -11 -41 -10 -49
4 -64 47 -47 166 53 239 200 l40 82 -7 -47 c-9 -68 11 -142 48 -173 89 -75
211 21 321 252 36 77 235 378 244 370 1 -2 -9 -55 -22 -118 -31 -142 -42 -313
-23 -349 18 -34 63 -39 94 -9 30 28 49 87 73 234 36 215 49 239 153 291 85 43
189 108 271 171 31 24 57 38 57 31 0 -7 -7 -40 -14 -73 -22 -90 -46 -264 -39
-280 14 -38 33 -11 143 195 120 225 183 330 224 373 69 70 82 50 88 -133 3
-74 8 -143 12 -152 21 -47 80 -19 154 75 48 60 290 423 323 484 l17 31 138
-37 c136 -37 138 -38 149 -72 29 -83 35 -72 -72 -144 -54 -36 -103 -65 -110
-65 -18 0 -40 -47 -52 -112 -13 -75 -35 -114 -74 -138 -25 -16 -37 -35 -57
-92 -20 -55 -32 -76 -52 -85 -28 -14 -165 -128 -243 -204 -32 -31 -75 -58
-120 -77 -120 -50 -144 -65 -169 -102 -34 -52 -86 -157 -86 -174 0 -8 -25 -36
-55 -63 -47 -40 -70 -51 -141 -70 -46 -12 -118 -36 -158 -53 -133 -56 -164
-85 -366 -342 -163 -209 -203 -252 -337 -373 -134 -121 -154 -143 -178 -198
-69 -158 -90 -252 -60 -277 11 -9 24 -6 63 15 91 50 164 129 273 300 56 88
103 162 105 164 4 4 174 -21 174 -26 0 -2 -62 -81 -137 -176 -136 -171 -204
-272 -237 -356 -34 -86 13 -78 139 24 150 120 266 249 377 420 42 65 52 73
137 118 l92 49 -17 -39 c-57 -132 -136 -340 -154 -406 -26 -94 -24 -141 6
-145 42 -6 113 103 169 261 15 43 29 76 30 75 1 -2 -4 -43 -12 -93 -29 -186
16 -328 81 -256 26 28 52 121 77 272 20 127 37 170 63 168 6 0 30 -26 53 -59
39 -55 42 -63 52 -166 11 -112 28 -154 60 -154 41 0 69 59 136 287 26 87 60
185 75 219 27 56 64 103 75 93 2 -3 15 -57 29 -120 13 -64 36 -145 51 -182
l26 -66 -50 -218 c-70 -304 -103 -488 -99 -564 8 -163 88 5 144 301 6 31 9
-16 9 -155 0 -148 4 -209 14 -233 40 -94 97 42 171 403 34 169 154 597 145
520 -38 -335 -43 -424 -25 -469 24 -64 60 -3 101 174 37 160 62 224 99 250 49
35 49 36 52 -147 2 -117 7 -176 15 -184 19 -19 30 20 79 261 24 118 44 217 45
220 0 3 16 -40 33 -95 25 -76 37 -100 49 -99 10 1 19 -7 21 -20 15 -80 23
-101 37 -104 32 -6 76 136 169 538 73 317 68 300 93 309 12 5 23 8 24 7 1 -1
15 -150 32 -331 24 -258 33 -427 41 -775 6 -245 16 -497 21 -560 18 -220 22
-514 10 -711 -21 -340 -115 -1285 -159 -1608 l-9 -63 61 -29 c34 -16 66 -29
73 -29 7 0 21 -19 31 -43 29 -64 63 -90 125 -95 71 -6 131 12 176 54 21 18 44
34 50 34 23 0 87 39 120 72 40 41 69 94 76 145 4 21 -5 200 -19 398 -48 678
-57 841 -66 1255 -5 228 -12 435 -15 460 -3 25 -14 160 -26 300 -11 140 -33
399 -49 575 -16 176 -30 363 -32 417 l-3 96 26 -31 c21 -25 27 -28 35 -16 5 8
8 123 6 266 -3 175 -1 253 7 253 29 0 71 -105 157 -395 101 -342 145 -479 156
-490 15 -15 2 143 -30 372 -15 106 -26 193 -25 193 1 0 30 -41 64 -91 34 -49
95 -123 135 -163 101 -100 108 -120 149 -446 29 -231 38 -279 62 -332 19 -46
49 -51 59 -11 13 49 -6 327 -35 523 -16 107 -28 196 -27 197 7 7 169 -458 195
-558 66 -253 137 -385 189 -353 38 24 47 63 47 202 0 73 3 122 6 110 33 -118
86 -265 110 -303 22 -35 34 -45 55 -45 l27 0 -6 72 c-11 147 -146 592 -309
1022 -43 115 -77 209 -76 210 2 1 16 7 31 14 43 19 59 69 58 187 -1 180 -75
388 -153 430 -32 17 -55 51 -43 63 2 2 23 -9 47 -26 66 -45 205 -117 285 -147
112 -41 134 -76 184 -285 36 -150 60 -205 101 -226 101 -52 113 88 33 366 -19
65 -35 122 -35 125 0 17 242 -290 274 -348 37 -67 110 -164 151 -200 11 -10
39 -27 63 -38 51 -24 93 -15 133 27 22 23 24 35 24 113 l0 86 35 -57 c77 -128
176 -209 235 -194 20 5 25 13 25 39 0 89 -175 357 -432 664 -71 84 -128 155
-128 158 0 3 14 5 30 5 42 0 87 25 104 57 l14 27 20 -41 c12 -22 37 -105 57
-183 38 -150 51 -185 81 -211 33 -29 61 -32 83 -10 39 39 22 203 -43 406 -14
43 -24 81 -22 82 9 9 248 -299 291 -374 59 -104 156 -207 205 -220 121 -31
183 70 144 232 -3 11 12 -9 32 -45 51 -88 148 -185 198 -199 57 -15 80 0 71
47 -14 75 -105 227 -261 437 -89 120 -144 200 -144 210 0 3 15 5 34 5 91 0 61
75 -82 211 -52 49 -134 115 -181 146 -47 31 -111 79 -141 108 -66 62 -412 295
-448 301 -14 3 -32 9 -41 13 -9 5 -61 19 -115 30 -75 17 -116 20 -167 15 -82
-8 -103 7 -112 83 -3 27 -17 79 -32 115 l-26 65 -70 28 -71 27 6 34 c6 30 -7
177 -21 231 -5 23 -5 23 36 8 59 -20 103 -54 148 -111 54 -68 101 -106 127
-102 19 3 21 9 20 68 -1 68 -21 121 -70 187 -13 17 -24 34 -24 37 0 4 66 -38
148 -92 81 -54 167 -111 191 -126 l44 -28 -5 91 c-5 84 -4 89 12 78 9 -7 91
-74 182 -151 l165 -138 169 -73 c93 -39 180 -75 193 -80 23 -7 23 -6 -7 36
-80 117 -228 234 -682 541 l-215 145 -125 28 c-163 36 -372 104 -460 151 -38
20 -86 55 -105 78 -40 45 -158 226 -149 226 4 0 63 -21 133 -46 155 -57 441
-154 441 -149 0 3 -326 212 -660 422 l-234 148 -132 147 c-114 127 -133 154
-144 198 -17 71 -26 197 -20 266 l5 59 12 -35 c6 -19 14 -70 16 -112 4 -56 13
-94 33 -135 l27 -58 55 167 c31 93 57 167 58 165 2 -2 -2 -34 -9 -72 l-13 -69
39 -59 c22 -32 52 -90 67 -128 15 -39 31 -70 36 -70 5 0 10 16 12 35 2 24 9
35 23 39 17 5 19 14 18 79 0 40 -6 108 -13 151 -7 42 -10 77 -7 77 3 -1 16 -9
29 -20 28 -23 59 -104 118 -312 77 -274 146 -430 177 -399 7 7 15 7 25 -1 10
-9 15 -9 22 1 11 18 23 207 14 223 -4 9 -4 10 3 3 5 -5 20 -35 32 -65 29 -74
54 -105 76 -96 15 5 17 15 11 68 -4 34 -20 113 -36 177 -16 63 -28 116 -26
118 2 2 28 -11 58 -31 48 -30 58 -43 83 -103 70 -168 161 -323 190 -323 28 0
18 86 -31 264 -14 48 -23 90 -21 92 4 4 271 -186 275 -197 18 -45 144 -237
180 -273 105 -106 107 -9 5 172 l-44 77 48 -45 c26 -25 100 -96 164 -157 63
-62 132 -119 152 -128 81 -34 177 -6 177 51 0 28 -9 37 -117 112 -87 61 -330
267 -505 428 -88 82 -127 129 -229 274 -141 203 -251 346 -343 446 -69 75
-149 125 -256 159 -30 10 -60 22 -66 29 -8 9 -52 122 -101 262 -2 6 3 14 12
18 12 4 54 -28 143 -108 l126 -114 57 49 57 49 53 -121 54 -121 76 -54 c43
-30 79 -54 81 -54 1 0 2 53 0 117 l-3 118 41 -40 c23 -22 62 -73 87 -113 49
-79 98 -119 176 -146 26 -9 50 -16 52 -16 3 0 -40 90 -95 200 -55 110 -98 200
-97 200 2 0 26 -28 53 -62 115 -148 192 -211 273 -224 45 -7 105 11 98 30 -3
6 -33 82 -67 168 l-61 157 -117 72 c-150 93 -373 208 -483 249 -53 20 -113 52
-154 83 -127 95 -395 375 -676 707 l-115 136 -12 134 c-6 74 -18 160 -26 190
-8 30 -13 56 -11 58 1 2 27 -11 56 -29 147 -85 222 -172 239 -273 11 -70 19
-80 76 -102 36 -14 63 -16 137 -11 76 6 231 37 242 49 2 2 -37 70 -86 153 -48
82 -87 151 -85 152 4 4 156 -49 281 -99 66 -26 122 -41 167 -45 37 -3 68 -4
68 -1 0 10 -218 198 -311 268 -52 39 -126 86 -164 104 -55 27 -89 53 -155 123
-124 128 -306 360 -594 756 l-108 149 -57 201 c-32 111 -86 336 -122 499 -35
164 -67 298 -70 298 -3 0 -24 -60 -47 -132z"/>
</g>
</svg>
