<svg width="117" height="109" viewBox="0 0 117 109" fill="none" xmlns="http://www.w3.org/2000/svg">
<path d="M21.4038 61.8294L19.5129 82.7042C44.9395 73.0435 80.0318 70.6911 104.009 80.3018C104.227 76.6531 103.478 62.7382 104.263 60.3003C101.541 59.4405 101.985 59.6319 99.46 58.9209C79.4142 53.2769 57.6273 52.0639 26.099 60.1091C23.4651 60.7812 21.4038 61.8294 21.4038 61.8294Z" fill="white"/>
<path d="M88.8265 4.18642C45.3583 20.702 34.7289 39.1821 26.099 60.1091C57.6273 52.0639 79.4142 53.2769 99.46 58.9209C94.9834 38.692 78.5338 19.3294 88.8265 4.18642Z" fill="#D95F77"/>
<circle cx="83.9078" cy="8.13304" r="6" transform="rotate(-20.804 83.9078 8.13304)" fill="white"/>
</svg>
